<mxfile host="Electron" agent="Mozilla/5.0 (Windows NT 10.0; Win64; x64) AppleWebKit/537.36 (KHTML, like Gecko) draw.io/26.2.15 Chrome/134.0.6998.205 Electron/35.2.1 Safari/537.36" version="26.2.15">
  <diagram name="Σελίδα-1" id="VbvC_hYN4VeRJr1SmG8f">
    <mxGraphModel dx="3156" dy="2394" grid="1" gridSize="10" guides="1" tooltips="1" connect="1" arrows="1" fold="1" page="1" pageScale="1" pageWidth="827" pageHeight="1169" math="0" shadow="0">
      <root>
        <mxCell id="0" />
        <mxCell id="1" parent="0" />
        <mxCell id="A1f5qZkB9SCuruUHtYql-1" value="OrderPlacementPage" style="swimlane;fontStyle=1;align=center;verticalAlign=top;childLayout=stackLayout;horizontal=1;startSize=26;horizontalStack=0;resizeParent=1;resizeParentMax=0;resizeLast=0;collapsible=1;marginBottom=0;whiteSpace=wrap;html=1;" parent="1" vertex="1">
          <mxGeometry x="360" y="-160" width="160" height="230" as="geometry" />
        </mxCell>
        <mxCell id="A1f5qZkB9SCuruUHtYql-2" value="+orderId: int&lt;div&gt;+foodList: list&amp;lt;Food&amp;gt;&lt;/div&gt;" style="text;strokeColor=none;fillColor=none;align=left;verticalAlign=top;spacingLeft=4;spacingRight=4;overflow=hidden;rotatable=0;points=[[0,0.5],[1,0.5]];portConstraint=eastwest;whiteSpace=wrap;html=1;" parent="A1f5qZkB9SCuruUHtYql-1" vertex="1">
          <mxGeometry y="26" width="160" height="54" as="geometry" />
        </mxCell>
        <mxCell id="A1f5qZkB9SCuruUHtYql-3" value="" style="line;strokeWidth=1;fillColor=none;align=left;verticalAlign=middle;spacingTop=-1;spacingLeft=3;spacingRight=3;rotatable=0;labelPosition=right;points=[];portConstraint=eastwest;strokeColor=inherit;" parent="A1f5qZkB9SCuruUHtYql-1" vertex="1">
          <mxGeometry y="80" width="160" height="8" as="geometry" />
        </mxCell>
        <mxCell id="A1f5qZkB9SCuruUHtYql-4" value="+showFood(): void&lt;div&gt;+fetchSearchedFood(String searchTerm): list&amp;lt;Food&amp;gt;&lt;/div&gt;&lt;div&gt;+saveFood(Food food,int quantity):void&lt;/div&gt;&lt;div&gt;+keepSearching(): void&lt;/div&gt;&lt;div&gt;+stopSearching(): void&lt;/div&gt;&lt;div&gt;+cancelOrder(): void&lt;/div&gt;&lt;div&gt;+finishOrder(): void&lt;/div&gt;" style="text;strokeColor=none;fillColor=none;align=left;verticalAlign=top;spacingLeft=4;spacingRight=4;overflow=hidden;rotatable=0;points=[[0,0.5],[1,0.5]];portConstraint=eastwest;whiteSpace=wrap;html=1;" parent="A1f5qZkB9SCuruUHtYql-1" vertex="1">
          <mxGeometry y="88" width="160" height="142" as="geometry" />
        </mxCell>
        <mxCell id="A1f5qZkB9SCuruUHtYql-5" value="FoodService" style="swimlane;fontStyle=1;align=center;verticalAlign=top;childLayout=stackLayout;horizontal=1;startSize=26;horizontalStack=0;resizeParent=1;resizeParentMax=0;resizeLast=0;collapsible=1;marginBottom=0;whiteSpace=wrap;html=1;" parent="1" vertex="1">
          <mxGeometry x="530" y="160" width="160" height="140" as="geometry" />
        </mxCell>
        <mxCell id="A1f5qZkB9SCuruUHtYql-6" value="-foodList: list&amp;lt;Food&amp;gt;" style="text;strokeColor=none;fillColor=none;align=left;verticalAlign=top;spacingLeft=4;spacingRight=4;overflow=hidden;rotatable=0;points=[[0,0.5],[1,0.5]];portConstraint=eastwest;whiteSpace=wrap;html=1;" parent="A1f5qZkB9SCuruUHtYql-5" vertex="1">
          <mxGeometry y="26" width="160" height="26" as="geometry" />
        </mxCell>
        <mxCell id="A1f5qZkB9SCuruUHtYql-7" value="" style="line;strokeWidth=1;fillColor=none;align=left;verticalAlign=middle;spacingTop=-1;spacingLeft=3;spacingRight=3;rotatable=0;labelPosition=right;points=[];portConstraint=eastwest;strokeColor=inherit;" parent="A1f5qZkB9SCuruUHtYql-5" vertex="1">
          <mxGeometry y="52" width="160" height="8" as="geometry" />
        </mxCell>
        <mxCell id="A1f5qZkB9SCuruUHtYql-8" value="+getAllFoods(): list&amp;lt;Food&amp;gt;&lt;div&gt;+searchFood(String Name):list&amp;lt;Food&amp;gt;&lt;/div&gt;" style="text;strokeColor=none;fillColor=none;align=left;verticalAlign=top;spacingLeft=4;spacingRight=4;overflow=hidden;rotatable=0;points=[[0,0.5],[1,0.5]];portConstraint=eastwest;whiteSpace=wrap;html=1;" parent="A1f5qZkB9SCuruUHtYql-5" vertex="1">
          <mxGeometry y="60" width="160" height="80" as="geometry" />
        </mxCell>
        <mxCell id="A1f5qZkB9SCuruUHtYql-13" value="Order" style="swimlane;fontStyle=1;align=center;verticalAlign=top;childLayout=stackLayout;horizontal=1;startSize=26;horizontalStack=0;resizeParent=1;resizeParentMax=0;resizeLast=0;collapsible=1;marginBottom=0;whiteSpace=wrap;html=1;" parent="1" vertex="1">
          <mxGeometry x="-50" y="358" width="160" height="164" as="geometry" />
        </mxCell>
        <mxCell id="A1f5qZkB9SCuruUHtYql-14" value="-orderId: int&lt;div&gt;-orderDate: LocalDateTime&lt;/div&gt;&lt;div&gt;-status: String&lt;/div&gt;&lt;div&gt;-items: list&amp;lt;Food&amp;gt;&lt;/div&gt;&lt;div&gt;-totalPrice: double&lt;/div&gt;" style="text;strokeColor=none;fillColor=none;align=left;verticalAlign=top;spacingLeft=4;spacingRight=4;overflow=hidden;rotatable=0;points=[[0,0.5],[1,0.5]];portConstraint=eastwest;whiteSpace=wrap;html=1;" parent="A1f5qZkB9SCuruUHtYql-13" vertex="1">
          <mxGeometry y="26" width="160" height="104" as="geometry" />
        </mxCell>
        <mxCell id="A1f5qZkB9SCuruUHtYql-15" value="" style="line;strokeWidth=1;fillColor=none;align=left;verticalAlign=middle;spacingTop=-1;spacingLeft=3;spacingRight=3;rotatable=0;labelPosition=right;points=[];portConstraint=eastwest;strokeColor=inherit;" parent="A1f5qZkB9SCuruUHtYql-13" vertex="1">
          <mxGeometry y="130" width="160" height="8" as="geometry" />
        </mxCell>
        <mxCell id="A1f5qZkB9SCuruUHtYql-16" value="+ method(type): type" style="text;strokeColor=none;fillColor=none;align=left;verticalAlign=top;spacingLeft=4;spacingRight=4;overflow=hidden;rotatable=0;points=[[0,0.5],[1,0.5]];portConstraint=eastwest;whiteSpace=wrap;html=1;" parent="A1f5qZkB9SCuruUHtYql-13" vertex="1">
          <mxGeometry y="138" width="160" height="26" as="geometry" />
        </mxCell>
        <mxCell id="A1f5qZkB9SCuruUHtYql-21" value="Food" style="swimlane;fontStyle=1;align=center;verticalAlign=top;childLayout=stackLayout;horizontal=1;startSize=26;horizontalStack=0;resizeParent=1;resizeParentMax=0;resizeLast=0;collapsible=1;marginBottom=0;whiteSpace=wrap;html=1;" parent="1" vertex="1">
          <mxGeometry x="370" y="380" width="160" height="188" as="geometry" />
        </mxCell>
        <mxCell id="A1f5qZkB9SCuruUHtYql-22" value="-Name: String&lt;div&gt;-Description: String&lt;/div&gt;&lt;div&gt;-Price: double&lt;/div&gt;&lt;div&gt;-category: String&lt;/div&gt;&lt;div&gt;-available: boolean&lt;/div&gt;" style="text;strokeColor=none;fillColor=none;align=left;verticalAlign=top;spacingLeft=4;spacingRight=4;overflow=hidden;rotatable=0;points=[[0,0.5],[1,0.5]];portConstraint=eastwest;whiteSpace=wrap;html=1;" parent="A1f5qZkB9SCuruUHtYql-21" vertex="1">
          <mxGeometry y="26" width="160" height="104" as="geometry" />
        </mxCell>
        <mxCell id="A1f5qZkB9SCuruUHtYql-23" value="" style="line;strokeWidth=1;fillColor=none;align=left;verticalAlign=middle;spacingTop=-1;spacingLeft=3;spacingRight=3;rotatable=0;labelPosition=right;points=[];portConstraint=eastwest;strokeColor=inherit;" parent="A1f5qZkB9SCuruUHtYql-21" vertex="1">
          <mxGeometry y="130" width="160" height="8" as="geometry" />
        </mxCell>
        <mxCell id="A1f5qZkB9SCuruUHtYql-24" value="+ method(type): type" style="text;strokeColor=none;fillColor=none;align=left;verticalAlign=top;spacingLeft=4;spacingRight=4;overflow=hidden;rotatable=0;points=[[0,0.5],[1,0.5]];portConstraint=eastwest;whiteSpace=wrap;html=1;" parent="A1f5qZkB9SCuruUHtYql-21" vertex="1">
          <mxGeometry y="138" width="160" height="50" as="geometry" />
        </mxCell>
        <mxCell id="A1f5qZkB9SCuruUHtYql-25" value="OrderService" style="swimlane;fontStyle=1;align=center;verticalAlign=top;childLayout=stackLayout;horizontal=1;startSize=30;horizontalStack=0;resizeParent=1;resizeParentMax=0;resizeLast=0;collapsible=1;marginBottom=0;whiteSpace=wrap;html=1;" parent="1" vertex="1">
          <mxGeometry x="160" y="150" width="160" height="160" as="geometry" />
        </mxCell>
        <mxCell id="A1f5qZkB9SCuruUHtYql-26" value="+orderId: int" style="text;strokeColor=none;fillColor=none;align=left;verticalAlign=top;spacingLeft=4;spacingRight=4;overflow=hidden;rotatable=0;points=[[0,0.5],[1,0.5]];portConstraint=eastwest;whiteSpace=wrap;html=1;" parent="A1f5qZkB9SCuruUHtYql-25" vertex="1">
          <mxGeometry y="30" width="160" height="26" as="geometry" />
        </mxCell>
        <mxCell id="A1f5qZkB9SCuruUHtYql-27" value="" style="line;strokeWidth=1;fillColor=none;align=left;verticalAlign=middle;spacingTop=-1;spacingLeft=3;spacingRight=3;rotatable=0;labelPosition=right;points=[];portConstraint=eastwest;strokeColor=inherit;" parent="A1f5qZkB9SCuruUHtYql-25" vertex="1">
          <mxGeometry y="56" width="160" height="8" as="geometry" />
        </mxCell>
        <mxCell id="A1f5qZkB9SCuruUHtYql-28" value="+addFoodToOrder(Food food,int quantity) :void&lt;div&gt;+confirmOrder(): Order&lt;/div&gt;&lt;div&gt;+cancelCurrentOrder(): void&lt;/div&gt;" style="text;strokeColor=none;fillColor=none;align=left;verticalAlign=top;spacingLeft=4;spacingRight=4;overflow=hidden;rotatable=0;points=[[0,0.5],[1,0.5]];portConstraint=eastwest;whiteSpace=wrap;html=1;" parent="A1f5qZkB9SCuruUHtYql-25" vertex="1">
          <mxGeometry y="64" width="160" height="96" as="geometry" />
        </mxCell>
        <mxCell id="A1f5qZkB9SCuruUHtYql-36" value="Restaurant Customer" style="swimlane;fontStyle=1;align=center;verticalAlign=top;childLayout=stackLayout;horizontal=1;startSize=26;horizontalStack=0;resizeParent=1;resizeParentMax=0;resizeLast=0;collapsible=1;marginBottom=0;whiteSpace=wrap;html=1;" parent="1" vertex="1">
          <mxGeometry x="-15" y="-320" width="160" height="50" as="geometry" />
        </mxCell>
        <mxCell id="A1f5qZkB9SCuruUHtYql-47" value="" style="endArrow=none;html=1;edgeStyle=orthogonalEdgeStyle;rounded=0;exitX=1.003;exitY=0.854;exitDx=0;exitDy=0;exitPerimeter=0;entryX=0.5;entryY=0;entryDx=0;entryDy=0;" parent="1" source="A1f5qZkB9SCuruUHtYql-4" target="A1f5qZkB9SCuruUHtYql-5" edge="1">
          <mxGeometry relative="1" as="geometry">
            <mxPoint x="550" y="100" as="sourcePoint" />
            <mxPoint x="710" y="100" as="targetPoint" />
          </mxGeometry>
        </mxCell>
        <mxCell id="A1f5qZkB9SCuruUHtYql-50" value="" style="endArrow=none;html=1;edgeStyle=orthogonalEdgeStyle;rounded=0;exitX=0.003;exitY=0.996;exitDx=0;exitDy=0;exitPerimeter=0;entryX=0.5;entryY=0;entryDx=0;entryDy=0;" parent="1" source="A1f5qZkB9SCuruUHtYql-4" target="A1f5qZkB9SCuruUHtYql-25" edge="1">
          <mxGeometry relative="1" as="geometry">
            <mxPoint x="380" y="130" as="sourcePoint" />
            <mxPoint x="540" y="130" as="targetPoint" />
          </mxGeometry>
        </mxCell>
        <mxCell id="A1f5qZkB9SCuruUHtYql-53" value="Dish" style="swimlane;fontStyle=1;align=center;verticalAlign=top;childLayout=stackLayout;horizontal=1;startSize=26;horizontalStack=0;resizeParent=1;resizeParentMax=0;resizeLast=0;collapsible=1;marginBottom=0;whiteSpace=wrap;html=1;" parent="1" vertex="1">
          <mxGeometry x="-750" y="110" width="160" height="240" as="geometry" />
        </mxCell>
        <mxCell id="A1f5qZkB9SCuruUHtYql-54" value="-dishName: String&lt;div&gt;-recipe: String&lt;/div&gt;&lt;div&gt;-neededIngredients: list&amp;lt;Ingredient&amp;gt;&lt;/div&gt;" style="text;strokeColor=none;fillColor=none;align=left;verticalAlign=top;spacingLeft=4;spacingRight=4;overflow=hidden;rotatable=0;points=[[0,0.5],[1,0.5]];portConstraint=eastwest;whiteSpace=wrap;html=1;" parent="A1f5qZkB9SCuruUHtYql-53" vertex="1">
          <mxGeometry y="26" width="160" height="104" as="geometry" />
        </mxCell>
        <mxCell id="A1f5qZkB9SCuruUHtYql-55" value="" style="line;strokeWidth=1;fillColor=none;align=left;verticalAlign=middle;spacingTop=-1;spacingLeft=3;spacingRight=3;rotatable=0;labelPosition=right;points=[];portConstraint=eastwest;strokeColor=inherit;" parent="A1f5qZkB9SCuruUHtYql-53" vertex="1">
          <mxGeometry y="130" width="160" height="8" as="geometry" />
        </mxCell>
        <mxCell id="A1f5qZkB9SCuruUHtYql-56" value="+checkIngredients( list&amp;lt;Ingredient&amp;gt; IngredientsList): boolean" style="text;strokeColor=none;fillColor=none;align=left;verticalAlign=top;spacingLeft=4;spacingRight=4;overflow=hidden;rotatable=0;points=[[0,0.5],[1,0.5]];portConstraint=eastwest;whiteSpace=wrap;html=1;" parent="A1f5qZkB9SCuruUHtYql-53" vertex="1">
          <mxGeometry y="138" width="160" height="102" as="geometry" />
        </mxCell>
        <mxCell id="A1f5qZkB9SCuruUHtYql-61" value="DishPreparationScreen" style="swimlane;fontStyle=1;align=center;verticalAlign=top;childLayout=stackLayout;horizontal=1;startSize=26;horizontalStack=0;resizeParent=1;resizeParentMax=0;resizeLast=0;collapsible=1;marginBottom=0;whiteSpace=wrap;html=1;" parent="1" vertex="1">
          <mxGeometry x="-530" y="-240" width="160" height="220" as="geometry" />
        </mxCell>
        <mxCell id="A1f5qZkB9SCuruUHtYql-62" value="-dishName: String&lt;div&gt;-missing:&amp;nbsp;&lt;span style=&quot;background-color: transparent; color: light-dark(rgb(0, 0, 0), rgb(255, 255, 255));&quot;&gt;list&amp;lt;ingredient&amp;gt;&lt;/span&gt;&lt;/div&gt;" style="text;strokeColor=none;fillColor=none;align=left;verticalAlign=top;spacingLeft=4;spacingRight=4;overflow=hidden;rotatable=0;points=[[0,0.5],[1,0.5]];portConstraint=eastwest;whiteSpace=wrap;html=1;" parent="A1f5qZkB9SCuruUHtYql-61" vertex="1">
          <mxGeometry y="26" width="160" height="44" as="geometry" />
        </mxCell>
        <mxCell id="A1f5qZkB9SCuruUHtYql-63" value="" style="line;strokeWidth=1;fillColor=none;align=left;verticalAlign=middle;spacingTop=-1;spacingLeft=3;spacingRight=3;rotatable=0;labelPosition=right;points=[];portConstraint=eastwest;strokeColor=inherit;" parent="A1f5qZkB9SCuruUHtYql-61" vertex="1">
          <mxGeometry y="70" width="160" height="8" as="geometry" />
        </mxCell>
        <mxCell id="A1f5qZkB9SCuruUHtYql-64" value="+fetchDishes(): Dish&lt;div&gt;+checkIngredients( list&amp;lt;ingredient&amp;gt; ingredientList): boolean&lt;/div&gt;&lt;div&gt;+enterMissingIng(missIng list&amp;lt;ingredient&amp;gt;):&amp;nbsp;&lt;/div&gt;&lt;div&gt;&lt;span style=&quot;background-color: transparent; color: light-dark(rgb(0, 0, 0), rgb(255, 255, 255));&quot;&gt;list&amp;lt;ingredient&amp;gt;&lt;/span&gt;&lt;/div&gt;&lt;div&gt;+cancelPreparation(): void&lt;/div&gt;&lt;div&gt;+confirmPreparation(): void&lt;/div&gt;" style="text;strokeColor=none;fillColor=none;align=left;verticalAlign=top;spacingLeft=4;spacingRight=4;overflow=hidden;rotatable=0;points=[[0,0.5],[1,0.5]];portConstraint=eastwest;whiteSpace=wrap;html=1;" parent="A1f5qZkB9SCuruUHtYql-61" vertex="1">
          <mxGeometry y="78" width="160" height="142" as="geometry" />
        </mxCell>
        <mxCell id="A1f5qZkB9SCuruUHtYql-65" value="Ingredient" style="swimlane;fontStyle=1;align=center;verticalAlign=top;childLayout=stackLayout;horizontal=1;startSize=26;horizontalStack=0;resizeParent=1;resizeParentMax=0;resizeLast=0;collapsible=1;marginBottom=0;whiteSpace=wrap;html=1;" parent="1" vertex="1">
          <mxGeometry x="-493" y="358" width="160" height="124" as="geometry" />
        </mxCell>
        <mxCell id="A1f5qZkB9SCuruUHtYql-66" value="-Name:String&lt;div&gt;-quantity: int&lt;/div&gt;" style="text;strokeColor=none;fillColor=none;align=left;verticalAlign=top;spacingLeft=4;spacingRight=4;overflow=hidden;rotatable=0;points=[[0,0.5],[1,0.5]];portConstraint=eastwest;whiteSpace=wrap;html=1;" parent="A1f5qZkB9SCuruUHtYql-65" vertex="1">
          <mxGeometry y="26" width="160" height="64" as="geometry" />
        </mxCell>
        <mxCell id="A1f5qZkB9SCuruUHtYql-67" value="" style="line;strokeWidth=1;fillColor=none;align=left;verticalAlign=middle;spacingTop=-1;spacingLeft=3;spacingRight=3;rotatable=0;labelPosition=right;points=[];portConstraint=eastwest;strokeColor=inherit;" parent="A1f5qZkB9SCuruUHtYql-65" vertex="1">
          <mxGeometry y="90" width="160" height="8" as="geometry" />
        </mxCell>
        <mxCell id="A1f5qZkB9SCuruUHtYql-68" value="&amp;nbsp;&amp;nbsp;&amp;nbsp; //+ method(type): type//" style="text;strokeColor=none;fillColor=none;align=left;verticalAlign=top;spacingLeft=4;spacingRight=4;overflow=hidden;rotatable=0;points=[[0,0.5],[1,0.5]];portConstraint=eastwest;whiteSpace=wrap;html=1;" parent="A1f5qZkB9SCuruUHtYql-65" vertex="1">
          <mxGeometry y="98" width="160" height="26" as="geometry" />
        </mxCell>
        <mxCell id="A1f5qZkB9SCuruUHtYql-74" value="" style="endArrow=none;html=1;edgeStyle=orthogonalEdgeStyle;rounded=0;exitX=0;exitY=0.5;exitDx=0;exitDy=0;entryX=0.441;entryY=0;entryDx=0;entryDy=0;entryPerimeter=0;" parent="1" source="A1f5qZkB9SCuruUHtYql-64" target="A1f5qZkB9SCuruUHtYql-53" edge="1">
          <mxGeometry relative="1" as="geometry">
            <mxPoint x="-493" y="50" as="sourcePoint" />
            <mxPoint x="-333" y="50" as="targetPoint" />
          </mxGeometry>
        </mxCell>
        <mxCell id="hzQFkaZlohZEBe7GLANC-1" value="Use" style="endArrow=open;endSize=12;dashed=1;html=1;rounded=0;" parent="1" target="A1f5qZkB9SCuruUHtYql-3" edge="1">
          <mxGeometry x="0.0208" y="11" width="160" relative="1" as="geometry">
            <mxPoint x="80" y="-270" as="sourcePoint" />
            <mxPoint x="190" y="-145.43" as="targetPoint" />
            <Array as="points">
              <mxPoint x="80" y="-80" />
            </Array>
            <mxPoint as="offset" />
          </mxGeometry>
        </mxCell>
        <mxCell id="hzQFkaZlohZEBe7GLANC-2" value="Manages" style="text;html=1;align=center;verticalAlign=middle;resizable=0;points=[];autosize=1;strokeColor=none;fillColor=none;" parent="1" vertex="1">
          <mxGeometry x="240" y="70" width="70" height="30" as="geometry" />
        </mxCell>
        <mxCell id="hzQFkaZlohZEBe7GLANC-3" value="1" style="text;html=1;align=center;verticalAlign=middle;resizable=0;points=[];autosize=1;strokeColor=none;fillColor=none;" parent="1" vertex="1">
          <mxGeometry x="210" y="110" width="30" height="30" as="geometry" />
        </mxCell>
        <mxCell id="hzQFkaZlohZEBe7GLANC-4" value="1" style="text;html=1;align=center;verticalAlign=middle;resizable=0;points=[];autosize=1;strokeColor=none;fillColor=none;" parent="1" vertex="1">
          <mxGeometry x="360" y="70" width="30" height="30" as="geometry" />
        </mxCell>
        <mxCell id="hzQFkaZlohZEBe7GLANC-5" value="" style="endArrow=none;html=1;edgeStyle=orthogonalEdgeStyle;rounded=0;entryX=1.012;entryY=0.558;entryDx=0;entryDy=0;entryPerimeter=0;" parent="1" target="A1f5qZkB9SCuruUHtYql-14" edge="1">
          <mxGeometry relative="1" as="geometry">
            <mxPoint x="230" y="311" as="sourcePoint" />
            <mxPoint x="190" y="451" as="targetPoint" />
            <Array as="points">
              <mxPoint x="230" y="311" />
              <mxPoint x="230" y="442" />
            </Array>
          </mxGeometry>
        </mxCell>
        <mxCell id="hzQFkaZlohZEBe7GLANC-6" value="Contains" style="text;html=1;align=center;verticalAlign=middle;resizable=0;points=[];autosize=1;strokeColor=none;fillColor=none;" parent="1" vertex="1">
          <mxGeometry x="230" y="370" width="70" height="30" as="geometry" />
        </mxCell>
        <mxCell id="hzQFkaZlohZEBe7GLANC-7" value="1" style="text;html=1;align=center;verticalAlign=middle;resizable=0;points=[];autosize=1;strokeColor=none;fillColor=none;" parent="1" vertex="1">
          <mxGeometry x="230" y="320" width="30" height="30" as="geometry" />
        </mxCell>
        <mxCell id="hzQFkaZlohZEBe7GLANC-8" value="1..n" style="text;html=1;align=center;verticalAlign=middle;resizable=0;points=[];autosize=1;strokeColor=none;fillColor=none;" parent="1" vertex="1">
          <mxGeometry x="105" y="440" width="40" height="30" as="geometry" />
        </mxCell>
        <mxCell id="hzQFkaZlohZEBe7GLANC-9" value="" style="endArrow=none;html=1;edgeStyle=orthogonalEdgeStyle;rounded=0;entryX=1.016;entryY=0.615;entryDx=0;entryDy=0;entryPerimeter=0;" parent="1" target="A1f5qZkB9SCuruUHtYql-22" edge="1">
          <mxGeometry relative="1" as="geometry">
            <mxPoint x="610" y="300" as="sourcePoint" />
            <mxPoint x="537" y="471.5" as="targetPoint" />
            <Array as="points">
              <mxPoint x="610" y="300" />
              <mxPoint x="610" y="470" />
            </Array>
          </mxGeometry>
        </mxCell>
        <mxCell id="hzQFkaZlohZEBe7GLANC-10" value="Contains" style="text;html=1;align=center;verticalAlign=middle;resizable=0;points=[];autosize=1;strokeColor=none;fillColor=none;" parent="1" vertex="1">
          <mxGeometry x="610" y="358" width="70" height="30" as="geometry" />
        </mxCell>
        <mxCell id="hzQFkaZlohZEBe7GLANC-11" value="1" style="text;html=1;align=center;verticalAlign=middle;resizable=0;points=[];autosize=1;strokeColor=none;fillColor=none;" parent="1" vertex="1">
          <mxGeometry x="575" y="300" width="30" height="30" as="geometry" />
        </mxCell>
        <mxCell id="hzQFkaZlohZEBe7GLANC-12" value="1..n" style="text;html=1;align=center;verticalAlign=middle;resizable=0;points=[];autosize=1;strokeColor=none;fillColor=none;" parent="1" vertex="1">
          <mxGeometry x="530" y="470" width="40" height="30" as="geometry" />
        </mxCell>
        <mxCell id="hzQFkaZlohZEBe7GLANC-13" value="" style="endArrow=none;html=1;edgeStyle=orthogonalEdgeStyle;rounded=0;exitX=0.007;exitY=0.683;exitDx=0;exitDy=0;exitPerimeter=0;entryX=0.385;entryY=0.994;entryDx=0;entryDy=0;entryPerimeter=0;" parent="1" source="A1f5qZkB9SCuruUHtYql-66" target="A1f5qZkB9SCuruUHtYql-56" edge="1">
          <mxGeometry relative="1" as="geometry">
            <mxPoint x="-570" y="419" as="sourcePoint" />
            <mxPoint x="-690" y="500" as="targetPoint" />
          </mxGeometry>
        </mxCell>
        <mxCell id="hzQFkaZlohZEBe7GLANC-14" value="1" style="text;html=1;align=center;verticalAlign=middle;resizable=0;points=[];autosize=1;strokeColor=none;fillColor=none;" parent="1" vertex="1">
          <mxGeometry x="-730" y="358" width="30" height="30" as="geometry" />
        </mxCell>
        <mxCell id="hzQFkaZlohZEBe7GLANC-15" value="1..n" style="text;html=1;align=center;verticalAlign=middle;resizable=0;points=[];autosize=1;strokeColor=none;fillColor=none;" parent="1" vertex="1">
          <mxGeometry x="-533" y="425" width="40" height="30" as="geometry" />
        </mxCell>
        <mxCell id="hzQFkaZlohZEBe7GLANC-16" value="Consists of" style="text;html=1;align=center;verticalAlign=middle;resizable=0;points=[];autosize=1;strokeColor=none;fillColor=none;" parent="1" vertex="1">
          <mxGeometry x="-675" y="388" width="80" height="30" as="geometry" />
        </mxCell>
        <mxCell id="hzQFkaZlohZEBe7GLANC-17" value="Use" style="endArrow=open;endSize=12;dashed=1;html=1;rounded=0;entryX=0.995;entryY=0.18;entryDx=0;entryDy=0;entryPerimeter=0;" parent="1" target="A1f5qZkB9SCuruUHtYql-64" edge="1">
          <mxGeometry x="0.0208" y="11" width="160" relative="1" as="geometry">
            <mxPoint x="40" y="-270" as="sourcePoint" />
            <mxPoint x="370" y="-67" as="targetPoint" />
            <Array as="points">
              <mxPoint x="40" y="-160" />
            </Array>
            <mxPoint as="offset" />
          </mxGeometry>
        </mxCell>
        <mxCell id="nXANTeXlz-X_aOB0fmQ--1" value="MissingIngredients" style="swimlane;fontStyle=1;align=center;verticalAlign=top;childLayout=stackLayout;horizontal=1;startSize=26;horizontalStack=0;resizeParent=1;resizeParentMax=0;resizeLast=0;collapsible=1;marginBottom=0;whiteSpace=wrap;html=1;" vertex="1" parent="1">
          <mxGeometry x="-320" y="36" width="160" height="178" as="geometry" />
        </mxCell>
        <mxCell id="nXANTeXlz-X_aOB0fmQ--2" value="- missingIng: list&amp;lt;ingredient&amp;gt;" style="text;strokeColor=none;fillColor=none;align=left;verticalAlign=top;spacingLeft=4;spacingRight=4;overflow=hidden;rotatable=0;points=[[0,0.5],[1,0.5]];portConstraint=eastwest;whiteSpace=wrap;html=1;" vertex="1" parent="nXANTeXlz-X_aOB0fmQ--1">
          <mxGeometry y="26" width="160" height="54" as="geometry" />
        </mxCell>
        <mxCell id="nXANTeXlz-X_aOB0fmQ--3" value="" style="line;strokeWidth=1;fillColor=none;align=left;verticalAlign=middle;spacingTop=-1;spacingLeft=3;spacingRight=3;rotatable=0;labelPosition=right;points=[];portConstraint=eastwest;strokeColor=inherit;" vertex="1" parent="nXANTeXlz-X_aOB0fmQ--1">
          <mxGeometry y="80" width="160" height="8" as="geometry" />
        </mxCell>
        <mxCell id="nXANTeXlz-X_aOB0fmQ--4" value="+chooseIfOrderOrCancel(&lt;div&gt;flag boolean): boolean&lt;div&gt;+ingredientsToOrder( mIng&amp;nbsp;&lt;span style=&quot;background-color: transparent; color: light-dark(rgb(0, 0, 0), rgb(255, 255, 255));&quot;&gt;list&amp;lt;ingredient&amp;gt;):&amp;nbsp;&lt;/span&gt;&lt;/div&gt;&lt;div&gt;&lt;span style=&quot;background-color: transparent; color: light-dark(rgb(0, 0, 0), rgb(255, 255, 255));&quot;&gt;list&amp;lt;ingredient&amp;gt;&lt;/span&gt;&lt;/div&gt;&lt;/div&gt;" style="text;strokeColor=none;fillColor=none;align=left;verticalAlign=top;spacingLeft=4;spacingRight=4;overflow=hidden;rotatable=0;points=[[0,0.5],[1,0.5]];portConstraint=eastwest;whiteSpace=wrap;html=1;" vertex="1" parent="nXANTeXlz-X_aOB0fmQ--1">
          <mxGeometry y="88" width="160" height="90" as="geometry" />
        </mxCell>
        <mxCell id="nXANTeXlz-X_aOB0fmQ--6" value="Use" style="endArrow=open;endSize=12;dashed=1;html=1;rounded=0;exitX=0.5;exitY=1;exitDx=0;exitDy=0;entryX=1.002;entryY=0.087;entryDx=0;entryDy=0;entryPerimeter=0;" edge="1" parent="1" source="A1f5qZkB9SCuruUHtYql-36" target="nXANTeXlz-X_aOB0fmQ--4">
          <mxGeometry x="0.0208" y="11" width="160" relative="1" as="geometry">
            <mxPoint x="10" y="-10" as="sourcePoint" />
            <mxPoint x="290" y="183" as="targetPoint" />
            <Array as="points">
              <mxPoint x="60" y="132" />
            </Array>
            <mxPoint as="offset" />
          </mxGeometry>
        </mxCell>
        <mxCell id="nXANTeXlz-X_aOB0fmQ--7" value="" style="endArrow=none;html=1;edgeStyle=orthogonalEdgeStyle;rounded=0;exitX=1.003;exitY=0.787;exitDx=0;exitDy=0;exitPerimeter=0;entryX=0.5;entryY=0;entryDx=0;entryDy=0;" edge="1" parent="1" source="A1f5qZkB9SCuruUHtYql-64" target="nXANTeXlz-X_aOB0fmQ--1">
          <mxGeometry relative="1" as="geometry">
            <mxPoint x="-290" y="-60" as="sourcePoint" />
            <mxPoint x="-410" y="21" as="targetPoint" />
          </mxGeometry>
        </mxCell>
        <mxCell id="nXANTeXlz-X_aOB0fmQ--8" value="Manages" style="text;html=1;align=center;verticalAlign=middle;resizable=0;points=[];autosize=1;strokeColor=none;fillColor=none;" vertex="1" parent="1">
          <mxGeometry x="-310" y="-80" width="70" height="30" as="geometry" />
        </mxCell>
      </root>
    </mxGraphModel>
  </diagram>
</mxfile>
